<svg version="1" xmlns="http://www.w3.org/2000/svg" width="257.333" height="100" viewBox="0 0 193.000000 75.000000"><path d="M58.3 1.5C43.7 5.5 33 14.2 33 21.8c0 4.2 3.3 6.5 13 9.1 14.8 4 18.8 6.7 17.5 11.8-1.7 7-19 18.3-36.5 23.8-9.1 2.8-19.2 3.7-21 1.9-3.8-3.8 13.1-18.9 28-25.1 3-1.2 4.7-2.3 3.8-2.3-.9 0-6.6 2.5-12.7 5.5-8.2 4.1-12.8 7.2-17.6 11.8C.9 64.6-.1 67 2 71c6.1 11.4 55.7-4.8 64-21 5-9.9 1-14.7-17.2-20-8.8-2.6-12.2-5.1-11.3-8.3 1.1-3.8 9.4-10.6 17.9-14.7 9.6-4.5 15.3-5.7 18-3.7 1.9 1.4 1.9 1.5 0 4.8-2 3.4-13.4 11.9-16 11.9-.8 0-1.4-.8-1.5-1.8 0-1-.6-.5-1.7 1.6-1.4 2.9-1.4 3.4-.2 4.3C60 28 77 15.4 77 7c0-5.9-8.4-8.4-18.7-5.5zm130.3 29c-5.4 8.2-21.8 24.6-23.2 23.2-1-.9 3.2-9.2 6.7-13.1 3.2-3.7 3.2-3.9 1.4-5.2-3-2.2-4.2-1.7-7.3 2.8-2.9 4.1-15.4 16.8-16.6 16.8-2 0 8.5-17.7 11-18.7 1.8-.7.6-3.1-1.8-3.9-1.3-.4-2.8.2-4.3 1.6-2.8 2.6-9.1 4.9-11.7 4.2-1-.2-2.3-1.3-2.9-2.3-.5-1.1-1.4-1.9-1.9-1.9-1.7 0-4.1 3.3-3.5 5 1 3.1-13.4 19-17.2 19-8.2 0 9.9-23.5 19.9-25.9l4.3-1-5.6.3c-8.2.4-12.4 2.8-27.2 15.5-14 12.1-15.4 10-3.7-5.4 4.2-5.5 4.8-6.9 4-8.6-.6-1-1.6-1.9-2.3-1.9-1.7 0-8 4.3-15.2 10.3-3.3 2.8-6.9 5.8-7.9 6.6C81 50 87.3 41 91.2 37.1c2.5-2.6 2.8-3.4 1.8-4.6-.7-.8-2.1-1.5-3.1-1.5C86.5 31 73 51.1 73 56.1c0 3.5 2 4.9 3.4 2.4 3-5.3 14-15.4 23-21.1 2.9-1.8 2.9-1.8-.8 3-7.4 9.7-9.2 15.6-5.4 18 2.3 1.4 5.6-.5 14.1-8.4 3.9-3.6 6.3-5.4 5.5-4-.9 1.4-1.9 3.9-2.3 5.7-.5 2.7-.2 3.7 2 5.8 2.1 2.2 3.1 2.5 5.8 2 7.4-1.6 17.3-9.1 20.2-15.5 1.6-3.6 2.2-4 5.4-4 2 0 4.7-.7 5.9-1.6 2-1.4 2-1.1-.7 3.5-1.7 2.7-3.7 7.1-4.6 9.7-1.4 4.3-1.4 4.8.1 6.5 2.2 2.4 3.7 1.6 11.5-6.4 3.4-3.4 5.8-5.3 5.3-4.2-.4 1.1-.8 4-.8 6.5-.1 6.6 2.5 6.6 9.9-.2 6.2-5.6 16.6-18.1 19-22.9 1.9-3.6 1.3-3.8-.9-.4z"/></svg>